<svg width="20" height="20" viewBox="0 0 20 20" fill="none" xmlns="http://www.w3.org/2000/svg">
<g id="Icon/Outline/file-text">
<path id="Mask" fill-rule="evenodd" clip-rule="evenodd" d="M10 11.6667H7.50003C7.04003 11.6667 6.66669 11.2934 6.66669 10.8334C6.66669 10.3734 7.04003 10 7.50003 10H10C10.46 10 10.8334 10.3734 10.8334 10.8334C10.8334 11.2934 10.46 11.6667 10 11.6667ZM6.66669 14.1667C6.66669 13.7067 7.04003 13.3334 7.50003 13.3334H12.5C12.9609 13.3334 13.3334 13.7067 13.3334 14.1667C13.3334 14.6267 12.9609 15 12.5 15H7.50003C7.04003 15 6.66669 14.6267 6.66669 14.1667ZM14.537 16.6667H5.46278C5.20778 16.6667 5.00028 16.48 5.00028 16.25V3.75002C5.00028 3.52002 5.20778 3.33335 5.46278 3.33335H10.0003V5.95835C10.0003 7.26835 11.0145 8.33335 12.262 8.33335H15.0003V16.25C15.0003 16.48 14.7928 16.6667 14.537 16.6667ZM11.667 4.14835L13.952 6.66668H12.262C11.9336 6.66668 11.667 6.34918 11.667 5.95835V4.14835ZM16.4503 6.94002L11.9136 1.94002C11.7553 1.76585 11.532 1.66669 11.2961 1.66669H5.46278C4.28862 1.66669 3.33362 2.60169 3.33362 3.75002V16.25C3.33362 17.3984 4.28862 18.3334 5.46278 18.3334H14.537C15.7111 18.3334 16.667 17.3984 16.667 16.25V7.50002C16.667 7.29252 16.5895 7.09335 16.4503 6.94002Z" fill="#2A8BF2"/>
<mask id="mask0_1_237" style="mask-type:alpha" maskUnits="userSpaceOnUse" x="3" y="1" width="14" height="18">
<path id="Mask_2" fill-rule="evenodd" clip-rule="evenodd" d="M10 11.6667H7.50003C7.04003 11.6667 6.66669 11.2934 6.66669 10.8334C6.66669 10.3734 7.04003 10 7.50003 10H10C10.46 10 10.8334 10.3734 10.8334 10.8334C10.8334 11.2934 10.46 11.6667 10 11.6667ZM6.66669 14.1667C6.66669 13.7067 7.04003 13.3334 7.50003 13.3334H12.5C12.9609 13.3334 13.3334 13.7067 13.3334 14.1667C13.3334 14.6267 12.9609 15 12.5 15H7.50003C7.04003 15 6.66669 14.6267 6.66669 14.1667ZM14.537 16.6667H5.46278C5.20778 16.6667 5.00028 16.48 5.00028 16.25V3.75002C5.00028 3.52002 5.20778 3.33335 5.46278 3.33335H10.0003V5.95835C10.0003 7.26835 11.0145 8.33335 12.262 8.33335H15.0003V16.25C15.0003 16.48 14.7928 16.6667 14.537 16.6667ZM11.667 4.14835L13.952 6.66668H12.262C11.9336 6.66668 11.667 6.34918 11.667 5.95835V4.14835ZM16.4503 6.94002L11.9136 1.94002C11.7553 1.76585 11.532 1.66669 11.2961 1.66669H5.46278C4.28862 1.66669 3.33362 2.60169 3.33362 3.75002V16.25C3.33362 17.3984 4.28862 18.3334 5.46278 18.3334H14.537C15.7111 18.3334 16.667 17.3984 16.667 16.25V7.50002C16.667 7.29252 16.5895 7.09335 16.4503 6.94002Z" fill="white"/>
</mask>
<g mask="url(#mask0_1_237)">
<g id="&#240;&#159;&#142;&#168; Color">
<rect id="Base" width="20" height="20" fill="#2A8BF2"/>
</g>
</g>
</g>
</svg>
