<svg width="14" height="14" viewBox="0 0 14 14" fill="none" xmlns="http://www.w3.org/2000/svg">
<g id="Icon/Outline/mic">
<path id="Mask" fill-rule="evenodd" clip-rule="evenodd" d="M7.00002 2.33335C6.3566 2.33335 5.83335 2.8566 5.83335 3.50002V6.41669C5.83335 7.0601 6.3566 7.58335 7.00002 7.58335C7.64344 7.58335 8.16669 7.0601 8.16669 6.41669V3.50002C8.16669 2.8566 7.64344 2.33335 7.00002 2.33335ZM9.33335 6.41669C9.33335 7.70352 8.28685 8.75002 7.00002 8.75002C5.71319 8.75002 4.66669 7.70352 4.66669 6.41669V3.50002C4.66669 2.21319 5.71319 1.16669 7.00002 1.16669C8.28685 1.16669 9.33335 2.21319 9.33335 3.50002V6.41669ZM10.5 5.83335C10.8226 5.83335 11.0834 6.09469 11.0834 6.41669C11.0834 8.47002 9.5591 10.1687 7.58335 10.4534V11.6667H8.81127C9.09885 11.6667 9.33335 11.9012 9.33335 12.1888V12.3113C9.33335 12.5989 9.09885 12.8334 8.81127 12.8334H5.18877C4.90119 12.8334 4.66669 12.5989 4.66669 12.3113V12.1888C4.66669 11.9012 4.90119 11.6667 5.18877 11.6667H6.41669V10.4534C4.44094 10.1687 2.91669 8.47002 2.91669 6.41669C2.91669 6.09469 3.17744 5.83335 3.50002 5.83335C3.8226 5.83335 4.08335 6.09469 4.08335 6.41669C4.08335 8.02494 5.39177 9.33335 7.00002 9.33335C8.60827 9.33335 9.91669 8.02494 9.91669 6.41669C9.91669 6.09469 10.1774 5.83335 10.5 5.83335Z" fill="#231F20"/>
<mask id="mask0_1_274" style="mask-type:alpha" maskUnits="userSpaceOnUse" x="2" y="1" width="10" height="12">
<path id="Mask_2" fill-rule="evenodd" clip-rule="evenodd" d="M7.00002 2.33335C6.3566 2.33335 5.83335 2.8566 5.83335 3.50002V6.41669C5.83335 7.0601 6.3566 7.58335 7.00002 7.58335C7.64344 7.58335 8.16669 7.0601 8.16669 6.41669V3.50002C8.16669 2.8566 7.64344 2.33335 7.00002 2.33335ZM9.33335 6.41669C9.33335 7.70352 8.28685 8.75002 7.00002 8.75002C5.71319 8.75002 4.66669 7.70352 4.66669 6.41669V3.50002C4.66669 2.21319 5.71319 1.16669 7.00002 1.16669C8.28685 1.16669 9.33335 2.21319 9.33335 3.50002V6.41669ZM10.5 5.83335C10.8226 5.83335 11.0834 6.09469 11.0834 6.41669C11.0834 8.47002 9.5591 10.1687 7.58335 10.4534V11.6667H8.81127C9.09885 11.6667 9.33335 11.9012 9.33335 12.1888V12.3113C9.33335 12.5989 9.09885 12.8334 8.81127 12.8334H5.18877C4.90119 12.8334 4.66669 12.5989 4.66669 12.3113V12.1888C4.66669 11.9012 4.90119 11.6667 5.18877 11.6667H6.41669V10.4534C4.44094 10.1687 2.91669 8.47002 2.91669 6.41669C2.91669 6.09469 3.17744 5.83335 3.50002 5.83335C3.8226 5.83335 4.08335 6.09469 4.08335 6.41669C4.08335 8.02494 5.39177 9.33335 7.00002 9.33335C8.60827 9.33335 9.91669 8.02494 9.91669 6.41669C9.91669 6.09469 10.1774 5.83335 10.5 5.83335Z" fill="white"/>
</mask>
<g mask="url(#mask0_1_274)">
<g id="&#240;&#159;&#142;&#168; Color">
<rect id="Base" width="14" height="14" fill="#707C97"/>
</g>
</g>
</g>
</svg>
